<svg width="46" height="39" viewBox="0 0 46 39" fill="none" xmlns="http://www.w3.org/2000/svg">
<circle cx="26.5" cy="19.5" r="19.5" fill="#037E8C"/>
<path d="M0.0587712 18.6323C-0.292397 22.8235 0.936691 26.3161 3.57045 29.4595C6.20421 32.6029 9.7159 34 13.9299 34H31.4883C32.3662 34 33.2442 33.6507 33.9465 32.9522C34.6488 32.2537 35 31.3805 35 30.5073V29.1103C35 28.0625 34.8244 26.84 34.6488 25.2683H20.2509C18.4951 25.2683 17.0904 24.5698 15.8613 23.3474C14.6322 22.1249 13.9299 20.5532 13.9299 18.9815C13.9299 16.1874 15.159 14.2665 17.7928 13.2187L26.2208 9.55136C23.2359 7.45576 19.7242 6.23333 15.6858 6.0587C11.8229 5.70943 8.31122 6.93186 5.15071 9.37673C1.9902 11.8216 0.409939 14.7904 0.0587712 18.6323ZM17.4416 18.9815C17.4416 19.6801 17.7928 20.3786 18.3195 20.9025C18.8463 21.4264 19.5486 21.7757 20.2509 21.7757H33.9465C32.893 17.9338 31.3127 14.7904 29.0301 12.3455L19.1974 16.3621C17.9683 16.7113 17.4416 17.5845 17.4416 18.9815Z" fill="#121214"/>
</svg>
