<svg width="50" height="39" viewBox="0 0 50 39" fill="none" xmlns="http://www.w3.org/2000/svg">
<circle cx="30.5" cy="19.5" r="19.5" fill="#037E8C"/>
<path fill-rule="evenodd" clip-rule="evenodd" d="M15.4994 14.6667C15.4994 20.1573 12.4856 24.6791 8.61079 25.2684V33.3333H22.388V25.3742H18.3177C17.683 25.3745 17.0667 25.1536 16.5688 24.7472C16.0709 24.3409 15.7204 23.7729 15.5741 23.1353C15.4278 22.4977 15.4943 21.8278 15.7629 21.2341C16.0314 20.6404 16.4862 20.1576 17.0537 19.864C16.8031 18.9933 16.8771 18.0572 17.2613 17.24C17.6455 16.4228 18.312 15.7835 19.1297 15.448C18.9872 14.8085 18.9862 14.1441 19.1268 13.5042C19.2675 12.8643 19.5461 12.2653 19.942 11.7519C20.3379 11.2385 20.8408 10.8239 21.4134 10.539C21.986 10.254 22.6135 10.106 23.2491 10.106C23.8848 10.106 24.5123 10.254 25.0848 10.539C25.6574 10.8239 26.1604 11.2385 26.5563 11.7519C26.9522 12.2653 27.2308 12.8643 27.3714 13.5042C27.512 14.1441 27.5111 14.8085 27.3685 15.448C28.1862 15.7835 28.8527 16.4228 29.2369 17.24C29.6211 18.0572 29.6952 18.9933 29.4446 19.864C30.012 20.1576 30.4668 20.6404 30.7354 21.2341C31.0039 21.8278 31.0704 22.4977 30.9241 23.1353C30.7779 23.7729 30.4274 24.3409 29.9294 24.7472C29.4315 25.1536 28.8153 25.3745 28.1805 25.3742H24.1102V33.3333H29.7072C30.0498 33.3333 30.3783 33.4738 30.6205 33.7239C30.8628 33.9739 30.9988 34.313 30.9988 34.6667C30.9988 35.0203 30.8628 35.3594 30.6205 35.6095C30.3783 35.8595 30.0498 36 29.7072 36H1.29162C0.94906 36 0.620531 35.8595 0.378306 35.6095C0.136081 35.3594 0 35.0203 0 34.6667C0 34.313 0.136081 33.9739 0.378306 33.7239C0.620531 33.4738 0.94906 33.3333 1.29162 33.3333H6.88863V25.2684C3.01378 24.6791 0 20.1573 0 14.6667C0 8.776 3.47015 4 7.74971 4C12.0293 4 15.4994 8.776 15.4994 14.6667Z" fill="#121214"/>
</svg>
