<svg width="73" height="73" viewBox="0 0 73 73" fill="none" xmlns="http://www.w3.org/2000/svg">
<g id="Frame" clip-path="url(#clip0_1_404)">
<g id="Layer_2_1_">
<path id="Vector" d="M0 73V57.3193L57.3193 0H73L0 73Z" fill="url(#paint0_linear_1_404)"/>
</g>
<g id="Group" opacity="0.3">
<path id="Vector_2" opacity="0.3" d="M52.19 12.8145C51.113 11.7557 49.5796 10.3501 48.1557 9.16357L33.3148 24.0045C32.2195 26.1221 31.4711 27.765 31.398 27.8928L30.8687 29.0428L37.0204 35.1946L38.0975 34.8295C38.1157 34.8295 38.134 34.8112 38.1522 34.8112L55.9687 16.9948C55.0012 15.7352 53.6686 14.2566 52.19 12.8145Z" fill="black"/>
<path id="Vector_3" opacity="0.3" d="M35.2679 37.6956L35.6329 36.6186L29.4812 30.4668L28.3311 30.9962C28.2033 31.0509 26.5604 31.7994 24.4429 32.9129L9.56543 47.7904C10.679 49.1777 12.0298 50.6929 13.2346 51.8611C14.3481 52.9564 15.991 54.4168 17.4514 55.5668L35.2679 37.7504C35.2679 37.7139 35.2679 37.6956 35.2679 37.6956Z" fill="black"/>
</g>
<g id="Group_2">
<g id="Group_3">
<path id="Vector_4" d="M31.1238 10.332C30.7222 10.3503 30.2294 10.6789 29.8278 12.4678C29.5722 13.6544 29.5539 15.5528 29.773 18.3093C30.1381 22.7269 32.0366 27.3453 32.0366 27.3453L34.866 27.2723L38.0971 12.4678C38.1153 12.4861 31.7262 10.4598 31.1238 10.332Z" fill="url(#paint1_linear_1_404)"/>
<path id="Vector_5" d="M31.1238 10.332C30.7222 10.3503 30.2294 10.6789 29.8278 12.4678C29.5722 13.6544 29.5539 15.5528 29.773 18.3093C30.1381 22.7269 32.0366 27.3453 32.0366 27.3453L34.866 27.2723L38.0971 12.4678C38.1153 12.4861 31.7262 10.4598 31.1238 10.332Z" fill="url(#paint2_linear_1_404)"/>
<path id="Vector_6" d="M34.9574 27.3819L32.0001 27.4549C31.9454 27.3271 31.9636 27.3819 31.9271 27.2723C31.8906 27.1628 31.8358 27.035 31.7811 26.9073C31.635 26.5057 31.4707 26.0493 31.3064 25.5382C30.8318 24.1143 30.412 22.6174 30.1199 21.1388C29.9191 20.1713 29.7913 19.2221 29.7183 18.3459C29.4992 15.5894 29.5175 13.6727 29.7731 12.4679C30.1199 10.9163 30.558 10.3139 31.1422 10.2773C33.1319 10.825 35.1034 11.4639 37.0566 12.0845C37.3487 12.1758 37.6043 12.2488 37.8416 12.3401L38.2249 12.4679L34.9574 27.3819ZM32.1096 27.2723L34.8113 27.2176L38.0059 12.5592C37.2757 12.3219 37.6043 12.4314 37.0019 12.2488C36.1804 11.9933 35.359 11.7377 34.5923 11.5004C33.7161 11.2266 32.8581 10.9528 31.9819 10.6972C31.7993 10.6424 31.5438 10.5694 31.343 10.5147C31.0144 10.4234 31.0144 10.4599 30.704 10.6424C30.2294 11.1536 30.0834 11.8472 29.9374 12.5044C29.6818 13.6909 29.6635 15.5894 29.8826 18.3276C29.9556 19.2038 30.0834 20.1348 30.2842 21.1023C30.5763 22.5809 30.9961 24.0595 31.4707 25.4834C31.635 25.9763 31.7993 26.4326 31.9454 26.8342C32.0001 26.9803 32.0549 27.0898 32.0914 27.1993L32.1096 27.2723Z" fill="#FFA7A9"/>
</g>
<g id="Group_4">
<path id="Vector_7" d="M10.77 30.6861C10.7883 30.2845 11.1169 29.7916 12.9058 29.39C14.0923 29.1344 15.9908 29.1162 18.7473 29.3352C23.1649 29.7003 27.7833 31.5988 27.7833 31.5988L27.7103 34.4283L12.9058 37.6593C12.9058 37.6776 10.8978 31.2885 10.77 30.6861Z" fill="url(#paint3_linear_1_404)"/>
<path id="Vector_8" d="M10.77 30.6861C10.7883 30.2845 11.1169 29.7916 12.9058 29.39C14.0923 29.1344 15.9908 29.1162 18.7473 29.3352C23.1649 29.7003 27.7833 31.5988 27.7833 31.5988L27.7103 34.4283L12.9058 37.6593C12.9058 37.6776 10.8978 31.2885 10.77 30.6861Z" fill="url(#paint4_linear_1_404)"/>
<path id="Vector_9" d="M27.82 34.5197L12.8512 37.7872C12.7235 37.4039 12.6139 37.0023 12.4862 36.6189C12.2306 35.7975 11.975 34.976 11.7377 34.2093C11.4639 33.3331 11.1901 32.4569 10.9345 31.5989C10.8615 31.3434 10.6972 30.96 10.679 30.7045C10.7155 30.1203 11.3179 29.6822 12.8695 29.3354C14.0743 29.0798 15.991 29.0433 18.7475 29.2806C19.6419 29.3536 20.5729 29.4814 21.5404 29.6822C23.019 29.9743 24.5159 30.3941 25.9398 30.8688C26.4326 31.033 26.889 31.1973 27.3089 31.3434C27.4549 31.3981 27.5827 31.4529 27.674 31.4894C27.7835 31.5442 27.7287 31.5077 27.8565 31.5624L27.82 34.5197ZM12.979 37.5682L27.6374 34.3736L27.6922 31.672L27.6192 31.6354C27.5097 31.5989 27.3819 31.5442 27.2541 31.4894C26.8525 31.3434 26.3961 31.1791 25.9033 31.0148C24.4794 30.5402 23.0008 30.1203 21.5222 29.8282C20.5547 29.6274 19.6237 29.4997 18.7475 29.4266C16.0093 29.2076 14.1108 29.2258 12.9243 29.4814C12.2671 29.6274 11.5734 29.7917 11.0623 30.2481C10.8615 30.5219 10.8432 30.5949 10.9345 30.887C10.9893 31.0696 11.0623 31.3251 11.1171 31.5259C11.2631 32.037 11.4274 32.5482 11.5917 33.0593C11.9568 34.2093 12.3036 35.3776 12.6687 36.5277C12.76 36.8197 12.8512 37.0753 12.9243 37.3126L12.979 37.5682Z" fill="#FFA7A9"/>
</g>
<path id="Vector_10" d="M41.31 56.8266C41.31 56.8266 43.1172 43.6285 35.505 34.6655C33.7891 35.1584 27.7651 36.491 27.6738 36.5823C35.9797 45.6365 29.0794 58.5973 29.0794 58.5973L35.8884 54.0519L41.31 56.8266Z" fill="url(#paint5_linear_1_404)"/>
<path id="Vector_11" opacity="0.4" d="M20.0981 48.9591C20.664 49.1599 21.7593 48.8679 22.4347 47.8639C23.0371 46.9511 23.7491 44.4868 25.2642 41.8033C27.0714 38.5905 35.3225 33.6436 35.3225 33.6436L38.1337 38.5175C38.1337 38.5175 37.0931 39.5945 35.3772 40.489C35.5415 42.7161 35.651 45.2169 35.505 47.4075C35.2129 51.8068 33.4422 53.1029 32.1097 53.2672C31.5072 53.3402 29.335 52.2632 26.4142 51.2044C24.6618 50.602 20.7005 49.4703 20.0981 48.9591Z" fill="#121214"/>
<g id="Group_5">
<path id="Vector_12" d="M8.96289 43.8109C8.70733 43.3545 8.397 42.1315 10.0764 40.4521C11.19 39.3385 13.5083 37.6226 16.7028 35.9067C21.7959 33.1867 27.9476 31.5073 27.9476 31.5073L30.1747 35.9797L16.21 49.9444C16.2282 49.9627 9.52879 44.3768 8.96289 43.8109Z" fill="url(#paint6_linear_1_404)"/>
<path id="Vector_13" d="M16.2282 50.0724C15.4615 49.4334 15.8449 49.7438 15.1147 49.1414C14.3115 48.4842 13.5083 47.8088 12.7416 47.1516C11.7558 46.3302 10.7701 45.4905 9.8026 44.6508C9.6018 44.4865 9.05416 44.0484 8.88987 43.8293C8.41525 42.9713 8.6343 41.7665 10.0217 40.3792C11.2995 39.1014 13.7638 37.3672 16.6663 35.8156C18.1632 35.0124 19.8426 34.2639 21.6316 33.552C23.1284 32.9496 24.6436 32.4385 26.0674 31.9821C26.5603 31.8178 27.0167 31.69 27.4183 31.5622C27.5643 31.5257 27.6921 31.4892 27.7833 31.4527C27.9111 31.4162 27.8381 31.4345 27.9841 31.3979L30.2842 35.9981L16.2282 50.0724ZM16.2282 49.8351L30.0834 35.9798L27.9111 31.6353L27.8564 31.6535C27.7468 31.69 27.6191 31.7265 27.4913 31.763C27.0897 31.8726 26.6333 32.0186 26.1404 32.1829C24.7166 32.6393 23.2197 33.1686 21.7228 33.7528C19.9339 34.4647 18.2727 35.2132 16.7758 36.0164C13.8734 37.5497 11.4273 39.2657 10.1494 40.5252C9.45576 41.2372 8.67081 42.2229 8.87161 43.2999C8.88987 43.4094 8.96289 43.6468 9.03591 43.7563C9.10892 43.8658 9.47401 44.1396 9.54703 44.2126C9.8026 44.4317 10.1129 44.7055 10.3867 44.9246C11.1352 45.5635 11.8654 46.1841 12.6138 46.8048C12.7051 46.8778 12.7781 46.9508 12.8694 47.0056C13.6361 47.6445 14.4393 48.3199 15.2425 48.9771C15.5163 49.2144 15.7718 49.4334 16.0091 49.616L16.2282 49.8351Z" fill="#FFA7A9"/>
</g>
<path id="Vector_14" d="M19.021 49.379C19.5869 49.5798 20.6822 49.2877 21.3576 48.2837C21.96 47.371 22.6719 44.9066 24.187 42.2232C25.9942 39.0104 29.3531 35.0674 29.3531 35.0674L33.9167 36.7103C33.9167 36.7103 34.7199 43.4462 34.4096 47.8456C34.1175 52.2449 32.3468 53.541 31.0142 53.7053C30.4118 53.7783 28.2396 52.7013 25.3188 51.6425C23.5846 51.0219 19.6234 49.8901 19.021 49.379Z" fill="url(#paint7_linear_1_404)"/>
<path id="Vector_15" d="M10.6971 30.668C11.8289 32.4569 14.7862 32.822 17.8712 32.676C21.5586 32.4934 28.3858 31.818 28.3858 31.818L29.4263 36.5642C29.4263 36.5642 24.1507 40.8175 20.2625 42.8985C16.3743 44.9795 14.6401 45.4542 13.7822 44.3954C13.3988 43.9208 12.5226 41.5294 11.8654 38.4809C11.4638 36.692 10.5876 31.4529 10.6971 30.668Z" fill="url(#paint8_linear_1_404)"/>
<path id="Vector_16" opacity="0.308" d="M29.3348 36.1991C25.8299 38.9555 22.2338 41.639 18.1995 43.5557C17.5789 43.8478 16.8487 44.1581 16.1915 44.3771C15.5891 44.5597 14.8772 44.724 14.2748 44.4867C13.6541 44.2494 13.4533 43.7382 13.216 43.1723C13.1248 42.9533 13.0335 42.7342 12.9605 42.5152C12.6866 41.7667 12.4676 40.9088 12.2485 40.1421C13.1978 40.9635 14.1835 40.5254 14.8589 40.0873C15.6439 39.5579 16.7026 38.6087 17.9257 37.6595C19.1305 36.7285 20.6456 35.9435 21.6861 35.5237C23.1465 34.9213 25.7569 33.7165 28.5681 32.4204L29.3348 36.1991Z" fill="url(#paint9_linear_1_404)"/>
<path id="Vector_17" d="M28.9881 33.3516L25.8849 35.1223L29.6088 34.5016L25.7023 37.8969L30.4485 35.3778L25.3555 41.2193L31.1057 36.0715L30.0104 39.3391L31.8906 36.8017L29.8461 44.286L32.8946 36.8929C32.9311 36.8747 28.9881 33.3516 28.9881 33.3516Z" fill="#80000D"/>
<path id="Vector_18" d="M28.0754 31.9457L27.8746 31.964C27.4548 32.0005 26.9802 32.0552 26.469 32.0918C25.0087 32.2195 23.5483 32.3473 22.161 32.4751C22.0514 32.4934 21.9236 32.4934 21.8141 32.5116C20.2625 32.6394 18.9299 32.7307 17.8894 32.7854C16.21 32.8402 14.4575 32.8767 12.8511 32.3291C12.1027 32.0735 11.2447 31.5806 10.7701 30.9052C10.6423 30.6131 10.7153 30.7409 10.7336 30.4854L10.8431 30.6679C11.8289 32.2378 14.2202 32.7854 17.8711 32.6029C18.8934 32.5481 20.226 32.4568 21.7776 32.3291C21.8871 32.3291 22.0149 32.3108 22.1244 32.2926C23.4935 32.183 24.9722 32.0552 26.4325 31.9092C26.9436 31.8544 27.4183 31.8179 27.8381 31.7814L28.0207 31.7632L28.0389 31.8179L28.0754 31.9457Z" fill="#FFA7A9"/>
<path id="Vector_19" opacity="0.311" d="M28.7874 51.1863C28.2397 51.6975 27.5461 52.1356 26.7794 52.1903C25.6476 51.7522 26.1405 51.9348 25.2825 51.6245C23.5666 51.0038 19.6053 49.872 19.0029 49.3609C19.5688 49.5617 20.6641 49.2696 21.3395 48.2656C21.9419 47.3529 22.6538 44.8885 24.169 42.2051C25.2277 40.3431 26.5056 38.609 27.8199 36.9113C28.1667 36.4549 28.5318 35.9986 28.8969 35.5604C29.0429 35.3962 29.1707 35.1954 29.335 35.0493L33.8074 36.6557V36.674C33.0589 40.0876 32.1645 43.4647 30.9962 46.7505C30.6311 47.791 30.3208 48.4847 29.9009 49.4522C29.8461 49.5617 29.6088 50.0728 29.5176 50.2371C29.408 50.4197 29.2985 50.5839 29.189 50.7482L28.7874 51.1863Z" fill="url(#paint10_linear_1_404)"/>
<path id="Vector_20" d="M8.96313 43.8114C9.52903 44.3773 10.9529 44.6329 12.322 43.8114C13.545 43.0813 15.7356 40.5621 19.0214 38.2255C22.9279 35.4326 29.0797 32.6396 29.0797 32.6396L33.552 37.112C33.552 37.112 30.7591 45.4909 27.9661 50.5109C25.1732 55.5309 22.3802 56.0968 20.7008 55.5309C19.9524 55.2753 17.0317 53.03 14.4943 50.5474C11.9569 48.0465 9.40124 44.7424 8.96313 43.8114Z" fill="url(#paint11_linear_1_404)"/>
<path id="Vector_21" d="M28.6048 32.968C28.0572 33.2236 28.3675 33.0775 27.6921 33.4061C26.5968 33.9355 25.4468 34.5196 24.2967 35.1403C23.3475 35.6514 22.453 36.1625 21.6133 36.6554C20.6641 37.2213 19.8061 37.7689 19.0759 38.2983C17.36 39.5031 15.8084 40.9087 14.275 42.3143C13.271 43.2271 12.7964 43.6287 12.3765 43.8842C11.5368 44.3588 10.2042 44.6874 9.30975 44.158C9.05418 44.0303 8.90815 43.866 8.88989 43.8477L9.03593 43.7382C9.65658 44.3588 11.0987 44.4319 12.2852 43.7199C12.6868 43.4826 13.1615 43.081 14.1655 42.1683C15.2242 41.2191 16.2647 40.2333 17.3783 39.3571C18.145 38.7364 18.3092 38.6269 18.9847 38.134C19.7331 37.6047 20.5911 37.0388 21.5403 36.4729C22.38 35.9617 23.2745 35.4689 24.2237 34.9577C25.3738 34.3371 26.5238 33.7529 27.6191 33.2236C28.2762 32.895 27.9842 33.041 28.5135 32.8037L28.6048 32.968Z" fill="#FFA7A9"/>
<path id="Vector_22" d="M41.4194 57.0278L35.8883 54.2166L29.2619 58.7985L29.0793 58.6159C32.0001 56.5532 29.627 58.0865 35.87 53.9062L41.2004 56.6262C41.2369 56.3524 41.2186 56.4984 41.2369 56.1881C41.2734 55.6769 41.3099 55.0928 41.3464 54.4356C41.4012 52.5737 41.3282 50.5657 41.0543 48.5029C40.4702 44.4321 39.3384 40.3249 36.9653 36.893C37.1114 36.7835 37.0383 36.8382 37.2026 36.7104L37.2756 36.8017C39.594 40.4161 40.7075 44.2313 41.3282 48.4481C41.602 50.5291 41.6933 52.5372 41.6202 54.4174C41.602 55.0745 41.5655 55.6587 41.5107 56.1881C41.4925 56.3706 41.4742 56.5349 41.4559 56.6627C41.4377 56.754 41.4377 56.8087 41.4377 56.827L41.4194 57.0278Z" fill="url(#paint12_linear_1_404)"/>
<path id="Vector_23" opacity="0.25" d="M31.3247 39.065C29.2984 37.3856 27.2357 34.5744 26.7063 32.8037C26.1769 31.033 27.3817 30.96 29.3897 32.6394C31.4159 34.3189 33.4787 37.1301 34.0081 38.9008C34.5557 40.6714 33.3509 40.7445 31.3247 39.065Z" fill="#121214"/>
<path id="Vector_24" d="M57.2645 40.8725C57.2645 40.8725 44.0665 42.6797 35.1035 35.0675C35.5964 33.3516 36.929 27.3276 37.0202 27.2363C46.0745 35.5422 59.0352 28.6419 59.0352 28.6419L54.4899 35.4509L57.2645 40.8725Z" fill="url(#paint13_linear_1_404)"/>
<path id="Vector_25" opacity="0.4" d="M49.4332 19.624C49.634 20.1899 49.3419 21.2852 48.3379 21.9606C47.4252 22.563 44.9608 23.2749 42.2774 24.7901C39.0646 26.5973 34.647 34.2459 34.647 34.2459L38.7908 37.6413C38.7908 37.6413 40.2694 36.5825 41.2004 34.9031C43.3361 35.0491 45.8735 35.1404 47.8998 35.0126C52.2991 34.7206 53.5952 32.9499 53.7595 31.6173C53.8325 31.0149 52.7555 28.8426 51.6967 25.9218C51.0761 24.1877 49.9443 20.2264 49.4332 19.624Z" fill="#121214"/>
<path id="Vector_26" d="M57.4653 40.9817L54.6541 35.4506L59.236 28.8241L59.0534 28.6416C56.9907 31.5623 58.5241 29.1892 54.3438 35.4323L57.0637 40.7626C56.7899 40.7991 56.9359 40.7809 56.6256 40.7991C56.1144 40.8357 55.5303 40.8722 54.8731 40.9087C53.0112 40.9634 51.0032 40.8904 48.9404 40.6166C44.8696 40.0325 40.7624 38.9007 37.3305 36.5276C37.221 36.6736 37.2757 36.6006 37.1479 36.7649L37.2392 36.8379C40.8536 39.1562 44.6688 40.2698 48.8856 40.8904C50.9667 41.1642 52.9747 41.2555 54.8549 41.1825C55.512 41.1642 56.0962 41.1277 56.6256 41.073C56.8081 41.0547 56.9724 41.0365 57.1002 41.0182C57.1915 40.9999 57.2462 40.9999 57.2645 40.9999L57.4653 40.9817Z" fill="url(#paint14_linear_1_404)"/>
<g id="Group_6">
<path id="Vector_27" d="M44.2491 8.54322C43.7928 8.28765 42.5697 7.97732 40.8903 9.65674C39.7768 10.7703 38.0608 13.0886 36.3449 16.2832C33.625 21.3762 31.9456 27.528 31.9456 27.528L36.4179 29.755L50.3827 15.7903C50.3827 15.7903 44.7968 9.09085 44.2491 8.54322Z" fill="url(#paint15_linear_1_404)"/>
<path id="Vector_28" d="M50.5104 15.8088C49.8715 15.0421 50.1818 15.4254 49.5794 14.6952C48.9222 13.892 48.2468 13.0888 47.5896 12.3221C46.7682 11.3364 45.9285 10.3507 45.0888 9.38316C44.9245 9.18236 44.4864 8.63473 44.2673 8.47044C43.4093 7.99582 42.1863 8.21487 40.8172 9.60222C39.5394 10.88 37.8052 13.3444 36.2535 16.2469C35.4503 17.7438 34.7019 19.4232 33.99 21.2121C33.3876 22.709 32.8764 24.2241 32.4201 25.648C32.2558 26.1409 32.128 26.5972 32.0002 26.9988C31.9637 27.1448 31.9272 27.2726 31.8907 27.3639C31.8542 27.4917 31.8724 27.4187 31.8359 27.5647L36.4361 29.8648L50.5104 15.8088ZM50.273 15.7905L36.4178 29.6457L32.0732 27.4734L32.0915 27.4187C32.128 27.3091 32.1645 27.1814 32.201 27.0536C32.3106 26.652 32.4566 26.1956 32.6209 25.7027C33.0772 24.2789 33.6066 22.782 34.1908 21.2851C34.9027 19.4962 35.6511 17.835 36.4543 16.3382C38.006 13.4539 39.7037 11.0078 40.9815 9.73C41.6934 9.03633 42.6792 8.25138 43.7562 8.45218C43.8657 8.47043 44.103 8.54345 44.2125 8.61647C44.3221 8.68949 44.5959 9.05458 44.6689 9.1276C44.888 9.38316 45.1618 9.69349 45.3808 9.96731C46.0197 10.7157 46.6404 11.4459 47.261 12.1944C47.3341 12.2856 47.4071 12.3587 47.4618 12.4499C48.1008 13.2166 48.7762 14.0198 49.4333 14.823C49.6706 15.0968 49.8897 15.3524 50.0722 15.5897L50.273 15.7905Z" fill="#FFA7A9"/>
</g>
<path id="Vector_29" d="M49.8167 18.5835C50.0175 19.1494 49.7254 20.2447 48.7214 20.9201C47.8087 21.5225 45.3443 22.2344 42.6609 23.7495C39.4481 25.5567 35.5051 28.9156 35.5051 28.9156L37.148 33.4792C37.148 33.4792 43.884 34.2824 48.2833 33.9721C52.6827 33.68 53.9787 31.9093 54.143 30.5767C54.2161 29.9743 53.139 27.8021 52.0803 24.8813C51.4596 23.1471 50.3278 19.1859 49.8167 18.5835Z" fill="url(#paint16_linear_1_404)"/>
<path id="Vector_30" d="M31.1057 10.2775C32.8947 11.4093 33.2598 14.3665 33.1137 17.4516C32.9312 21.139 32.2558 27.9662 32.2558 27.9662L37.0019 29.0067C37.0019 29.0067 41.2552 23.7311 43.3363 19.8429C45.4173 15.9547 45.8919 14.2205 44.8331 13.3625C44.3585 12.9792 41.9672 12.103 38.9187 11.4458C37.1297 11.0442 31.8907 10.1497 31.1057 10.2775Z" fill="url(#paint17_linear_1_404)"/>
<path id="Vector_31" opacity="0.308" d="M36.6366 28.8973C39.393 25.3924 42.0765 21.7963 43.9932 17.762C44.2853 17.1414 44.5956 16.4112 44.8147 15.754C44.9972 15.1516 45.1615 14.4397 44.9242 13.8373C44.6869 13.2166 44.1757 13.0158 43.6099 12.7785C43.3908 12.6873 43.1717 12.596 42.9527 12.523C42.2043 12.2491 41.3463 12.0301 40.5796 11.811C41.4011 12.7603 40.9629 13.746 40.5248 14.4214C39.9954 15.2064 39.0462 16.2652 38.097 17.4882C37.166 18.693 36.381 20.2081 35.9612 21.2486C35.3588 22.709 34.154 25.3194 32.8579 28.1306L36.6366 28.8973Z" fill="url(#paint18_linear_1_404)"/>
<path id="Vector_32" d="M33.7893 28.5687L35.56 25.4654L34.9393 29.1893L38.3347 25.2829L35.8156 30.0291L41.657 24.936L36.5092 30.6862L39.7768 29.591L37.2394 31.4894L44.7238 29.4449L37.3307 32.4934C37.2942 32.4934 33.7893 28.5687 33.7893 28.5687Z" fill="#80000D"/>
<path id="Vector_33" d="M32.3654 27.6379L32.3836 27.4371C32.4202 27.0173 32.4749 26.5427 32.5114 26.0315C32.6392 24.5712 32.767 23.1108 32.8948 21.7235C32.913 21.6139 32.913 21.4862 32.9313 21.3766C33.0591 19.825 33.1503 18.4924 33.2051 17.4519C33.2599 15.7725 33.2964 14.02 32.7487 12.4136C32.4932 11.6652 32.0003 10.8072 31.3249 10.3326C31.0328 10.2048 31.1606 10.2778 30.905 10.2961L31.0876 10.4056C32.6575 11.3914 33.2051 13.7827 33.0226 17.4336C32.9678 18.4559 32.8765 19.7885 32.7487 21.3401C32.7487 21.4496 32.7305 21.5774 32.7122 21.687C32.6027 23.056 32.4749 24.5347 32.3289 25.995C32.2741 26.5062 32.2376 26.9808 32.2011 27.4006L32.1828 27.5832L32.2376 27.6014L32.3654 27.6379Z" fill="#FFA7A9"/>
<path id="Vector_34" opacity="0.311" d="M51.6239 28.3494C52.135 27.8018 52.5731 27.1081 52.6279 26.3414C52.1898 25.2096 52.3723 25.7025 52.062 24.8445C51.4413 23.1286 50.3095 19.1673 49.7984 18.5649C49.9992 19.1308 49.7071 20.2261 48.7031 20.9015C47.7904 21.5039 45.326 22.2159 42.6426 23.731C40.7806 24.7897 39.0465 26.0676 37.3488 27.3819C36.8924 27.7287 36.4361 28.0938 35.9979 28.4589C35.8337 28.605 35.6329 28.7327 35.4868 28.897L37.0932 33.3694H37.1115C40.5251 32.621 43.9022 31.7265 47.188 30.5582C48.2285 30.1931 48.9222 29.8828 49.8897 29.4629C49.9992 29.4082 50.5103 29.1708 50.6746 29.0796C50.8572 28.97 51.0215 28.8605 51.1858 28.751L51.6239 28.3494Z" fill="url(#paint19_linear_1_404)"/>
<path id="Vector_35" d="M44.2489 8.54346C44.8148 9.10935 45.0704 10.5332 44.2489 11.9023C43.5188 13.1254 40.9996 15.3159 38.663 18.6017C35.8701 22.5082 33.0771 28.66 33.0771 28.66L37.5495 33.1324C37.5495 33.1324 45.9284 30.3394 50.9484 27.5465C55.9684 24.7535 56.5343 21.9606 55.9684 20.2811C55.7128 19.5327 53.8326 16.9953 50.9119 14.1476C48.3745 11.6285 45.1799 8.96331 44.2489 8.54346Z" fill="url(#paint20_linear_1_404)"/>
<path id="Vector_36" d="M33.4055 28.1671C33.6611 27.6194 33.515 27.9298 33.8436 27.2544C34.373 26.1591 34.9571 25.009 35.5778 23.859C36.0889 22.9098 36.6 22.0153 37.0929 21.1756C37.6588 20.2263 38.2065 19.3684 38.7358 18.6382C39.9406 16.9223 41.3462 15.3706 42.7518 13.8372C43.6646 12.8332 44.0662 12.3586 44.3217 11.9388C44.7964 11.0991 45.1249 9.76648 44.5956 8.872C44.4678 8.61644 44.3035 8.4704 44.2852 8.45215L44.1757 8.59818C44.7964 9.21884 44.8694 10.661 44.1574 11.8475C43.9201 12.2491 43.5185 12.7237 42.6058 13.7277C41.6566 14.7865 40.6708 15.827 39.7946 16.9405C39.1739 17.7072 39.0644 17.8715 38.5715 18.5469C38.0422 19.2954 37.4763 20.1533 36.9104 21.1026C36.3992 21.9423 35.9064 22.8367 35.3952 23.786C34.7746 24.936 34.1904 26.0861 33.6611 27.1813C33.3325 27.8385 33.4785 27.5464 33.2412 28.0758L33.4055 28.1671Z" fill="#FFA7A9"/>
<path id="Vector_37" opacity="0.25" d="M39.5028 30.9419C37.8234 28.9156 35.0122 26.8528 33.2415 26.3235C31.4708 25.7941 31.3978 26.9989 33.0772 29.0069C34.7566 31.0331 37.5678 33.0959 39.3385 33.6253C41.1092 34.1547 41.1822 32.9499 39.5028 30.9419Z" fill="#121214"/>
<path id="Vector_38" d="M26.5605 31.3069C26.6518 30.2299 30.9963 26.1956 31.9638 26.0131C32.9313 25.8488 40.7443 32.8403 40.4522 34.1181C40.2149 35.2134 35.7243 39.5762 34.4647 40.1056C33.2417 40.6167 26.4692 32.3839 26.5605 31.3069Z" fill="url(#paint21_linear_1_404)"/>
</g>
</g>
<defs>
<linearGradient id="paint0_linear_1_404" x1="-3.91862" y1="69.0811" x2="69.081" y2="-3.91855" gradientUnits="userSpaceOnUse">
<stop stop-color="#FF001B"/>
<stop offset="0.16" stop-color="#FF001B"/>
<stop offset="0.327" stop-color="#63000A"/>
<stop offset="0.65" stop-color="#67000B"/>
<stop offset="0.831" stop-color="#FF001B"/>
<stop offset="1" stop-color="#FF001B"/>
</linearGradient>
<linearGradient id="paint1_linear_1_404" x1="34.2884" y1="11.0274" x2="30.7884" y2="27.0813" gradientUnits="userSpaceOnUse">
<stop stop-color="#580009"/>
<stop offset="0.135" stop-color="#A40011"/>
<stop offset="0.263" stop-color="#D80016"/>
<stop offset="0.562" stop-color="#AA0012"/>
<stop offset="0.991" stop-color="#5B0009"/>
</linearGradient>
<linearGradient id="paint2_linear_1_404" x1="36.1097" y1="19.7186" x2="29.6206" y2="18.4679" gradientUnits="userSpaceOnUse">
<stop/>
<stop offset="0.2653" stop-color="#525252"/>
<stop offset="0.5274" stop-color="#9C9C9C"/>
<stop offset="0.7427" stop-color="#D2D2D2"/>
<stop offset="0.9032" stop-color="#F3F3F3"/>
<stop offset="0.991" stop-color="white"/>
</linearGradient>
<linearGradient id="paint3_linear_1_404" x1="11.4603" y1="33.8558" x2="27.514" y2="30.3559" gradientUnits="userSpaceOnUse">
<stop stop-color="#580009"/>
<stop offset="0.135" stop-color="#A40011"/>
<stop offset="0.263" stop-color="#D80016"/>
<stop offset="0.562" stop-color="#AA0012"/>
<stop offset="0.991" stop-color="#5B0009"/>
</linearGradient>
<linearGradient id="paint4_linear_1_404" x1="20.0737" y1="35.6646" x2="18.8354" y2="28.6308" gradientUnits="userSpaceOnUse">
<stop/>
<stop offset="0.4425" stop-color="#787878"/>
<stop offset="0.822" stop-color="#D9D9D9"/>
<stop offset="0.991" stop-color="white"/>
</linearGradient>
<linearGradient id="paint5_linear_1_404" x1="39.5775" y1="61.7946" x2="28.3874" y2="36.9296" gradientUnits="userSpaceOnUse">
<stop stop-color="#D50016"/>
<stop offset="0.342" stop-color="#FF001B"/>
<stop offset="0.536" stop-color="#C70015"/>
<stop offset="0.729" stop-color="#80000D"/>
</linearGradient>
<linearGradient id="paint6_linear_1_404" x1="11.7631" y1="46.6049" x2="27.3984" y2="30.9696" gradientUnits="userSpaceOnUse">
<stop stop-color="#580009"/>
<stop offset="0.135" stop-color="#A40011"/>
<stop offset="0.263" stop-color="#E60018"/>
<stop offset="0.5" stop-color="#BD0014"/>
</linearGradient>
<linearGradient id="paint7_linear_1_404" x1="25.7685" y1="51.9462" x2="31.5638" y2="35.8595" gradientUnits="userSpaceOnUse">
<stop stop-color="#93000F"/>
<stop offset="0.111" stop-color="#D50016"/>
<stop offset="0.226" stop-color="#FF3B46"/>
<stop offset="0.361" stop-color="#E10017"/>
<stop offset="0.551" stop-color="#990010"/>
<stop offset="0.782" stop-color="#67000B"/>
</linearGradient>
<linearGradient id="paint8_linear_1_404" x1="11.7709" y1="38.0795" x2="28.9411" y2="34.3361" gradientUnits="userSpaceOnUse">
<stop stop-color="#93000F"/>
<stop offset="0.111" stop-color="#D50016"/>
<stop offset="0.226" stop-color="#FF7780"/>
<stop offset="0.361" stop-color="#FF001B"/>
<stop offset="0.551" stop-color="#AD0012"/>
<stop offset="0.865" stop-color="#70000C"/>
</linearGradient>
<linearGradient id="paint9_linear_1_404" x1="13.2372" y1="42.4073" x2="29.3122" y2="35.4207" gradientUnits="userSpaceOnUse">
<stop offset="0.139"/>
<stop offset="0.389" stop-color="#464646"/>
<stop offset="0.835"/>
</linearGradient>
<linearGradient id="paint10_linear_1_404" x1="23.8229" y1="51.0191" x2="30.1637" y2="35.3529" gradientUnits="userSpaceOnUse">
<stop offset="0.126"/>
<stop offset="0.498" stop-color="#464646"/>
<stop offset="0.844"/>
</linearGradient>
<linearGradient id="paint11_linear_1_404" x1="15.0178" y1="51.0728" x2="31.2595" y2="34.8311" gradientUnits="userSpaceOnUse">
<stop stop-color="#93000F"/>
<stop offset="0.111" stop-color="#D50016"/>
<stop offset="0.226" stop-color="#FF7780"/>
<stop offset="0.361" stop-color="#FF001B"/>
<stop offset="0.573" stop-color="#C70015"/>
<stop offset="0.857" stop-color="#6C000B"/>
</linearGradient>
<linearGradient id="paint12_linear_1_404" x1="41.1165" y1="46.3368" x2="26.6952" y2="50.6226" gradientUnits="userSpaceOnUse">
<stop stop-color="#80000D"/>
<stop offset="1" stop-color="#C70015"/>
</linearGradient>
<linearGradient id="paint13_linear_1_404" x1="62.2273" y1="39.145" x2="37.3624" y2="27.955" gradientUnits="userSpaceOnUse">
<stop stop-color="#D50016"/>
<stop offset="0.342" stop-color="#FF001B"/>
<stop offset="0.536" stop-color="#C70015"/>
<stop offset="0.729" stop-color="#80000D"/>
</linearGradient>
<linearGradient id="paint14_linear_1_404" x1="46.769" y1="40.6839" x2="51.0548" y2="26.2624" gradientUnits="userSpaceOnUse">
<stop stop-color="#80000D"/>
<stop offset="1" stop-color="#C70015"/>
</linearGradient>
<linearGradient id="paint15_linear_1_404" x1="47.0379" y1="11.3304" x2="31.4027" y2="26.9656" gradientUnits="userSpaceOnUse">
<stop stop-color="#580009"/>
<stop offset="0.135" stop-color="#A40011"/>
<stop offset="0.263" stop-color="#E60018"/>
<stop offset="0.5" stop-color="#BD0014"/>
</linearGradient>
<linearGradient id="paint16_linear_1_404" x1="52.3789" y1="25.336" x2="36.2923" y2="31.1312" gradientUnits="userSpaceOnUse">
<stop stop-color="#93000F"/>
<stop offset="0.111" stop-color="#D50016"/>
<stop offset="0.226" stop-color="#FF3B46"/>
<stop offset="0.361" stop-color="#E10017"/>
<stop offset="0.551" stop-color="#990010"/>
<stop offset="0.782" stop-color="#67000B"/>
</linearGradient>
<linearGradient id="paint17_linear_1_404" x1="38.5121" y1="11.3382" x2="34.7687" y2="28.5085" gradientUnits="userSpaceOnUse">
<stop stop-color="#93000F"/>
<stop offset="0.111" stop-color="#D50016"/>
<stop offset="0.226" stop-color="#FF7780"/>
<stop offset="0.361" stop-color="#FF001B"/>
<stop offset="0.551" stop-color="#AD0012"/>
<stop offset="0.865" stop-color="#70000C"/>
</linearGradient>
<linearGradient id="paint18_linear_1_404" x1="42.8395" y1="12.8051" x2="35.8528" y2="28.8804" gradientUnits="userSpaceOnUse">
<stop offset="0.139"/>
<stop offset="0.389" stop-color="#464646"/>
<stop offset="0.835"/>
</linearGradient>
<linearGradient id="paint19_linear_1_404" x1="51.4509" y1="23.3903" x2="35.7846" y2="29.7311" gradientUnits="userSpaceOnUse">
<stop offset="0.126"/>
<stop offset="0.498" stop-color="#464646"/>
<stop offset="0.844"/>
</linearGradient>
<linearGradient id="paint20_linear_1_404" x1="51.4447" y1="14.6452" x2="35.2634" y2="30.8266" gradientUnits="userSpaceOnUse">
<stop stop-color="#93000F"/>
<stop offset="0.111" stop-color="#D50016"/>
<stop offset="0.226" stop-color="#FF7780"/>
<stop offset="0.361" stop-color="#FF001B"/>
<stop offset="0.573" stop-color="#C70015"/>
<stop offset="0.857" stop-color="#6C000B"/>
</linearGradient>
<linearGradient id="paint21_linear_1_404" x1="28.8482" y1="28.5098" x2="37.7266" y2="37.3045" gradientUnits="userSpaceOnUse">
<stop offset="0.011" stop-color="#80000D"/>
<stop offset="0.16" stop-color="#B80013"/>
<stop offset="0.303" stop-color="#E10018"/>
<stop offset="0.5" stop-color="#FF5D61"/>
<stop offset="0.694" stop-color="#E50018"/>
<stop offset="0.853" stop-color="#B60013"/>
<stop offset="1" stop-color="#80000D"/>
</linearGradient>
<clipPath id="clip0_1_404">
<rect width="73" height="73" fill="white"/>
</clipPath>
</defs>
</svg>
