<svg width="172" height="92" viewBox="0 0 172 92" fill="none" xmlns="http://www.w3.org/2000/svg">
<path fill-rule="evenodd" clip-rule="evenodd" d="M122.768 215.343C110.366 207.209 99.3464 198.2 88.874 187.691C78.7427 177.524 72.3493 164.993 62.341 154.705C42.5231 134.332 -2.736 125.676 1.11657 97.4783C4.77242 70.7202 49.1876 76.1399 74.3881 66.5287C89.1538 60.8973 105.722 61.3903 118.847 52.5772C139.829 38.4895 147.958 -5.59304 172.403 0.717642C197.205 7.12077 175.506 57.3678 196.158 72.5359C221.514 91.1592 277.596 55.8715 287.979 85.6051C298.127 114.664 237.992 121.972 222.769 148.738C213.582 164.89 228.737 186.647 220.923 203.507C212.282 222.153 198.082 243.499 177.712 245.955C156.535 248.508 140.605 227.041 122.768 215.343Z" fill="#037E8C"/>
</svg>
