<svg width="27" height="27" viewBox="0 0 27 27" fill="none" xmlns="http://www.w3.org/2000/svg">
<circle cx="13.5" cy="13.5" r="13.5" fill="#037E8C"/>
<path fill-rule="evenodd" clip-rule="evenodd" d="M19.9673 8.96104C20.1481 9.14187 20.2497 9.3871 20.2497 9.64279C20.2497 9.89848 20.1481 10.1437 19.9673 10.3245L12.253 18.0388C12.0722 18.2196 11.827 18.3212 11.5713 18.3212C11.3156 18.3212 11.0704 18.2196 10.8895 18.0388L7.03241 14.1817C6.85675 13.9998 6.75956 13.7562 6.76176 13.5034C6.76395 13.2506 6.86537 13.0087 7.04415 12.8299C7.22294 12.6511 7.46479 12.5497 7.71763 12.5475C7.97046 12.5453 8.21404 12.6425 8.3959 12.8182L11.5713 15.9936L18.6038 8.96104C18.7847 8.78027 19.0299 8.67871 19.2856 8.67871C19.5413 8.67871 19.7865 8.78027 19.9673 8.96104Z" fill="white"/>
</svg>
