<svg width="40" height="40" viewBox="0 0 40 40" fill="none" xmlns="http://www.w3.org/2000/svg">
<circle cx="19.5317" cy="20.0317" r="19.5317" fill="#037E8C"/>
<g clip-path="url(#clip0_230_7)">
<path d="M23.4379 30.5C22.7923 30.5 22.1522 30.3859 21.5262 30.1585C18.7686 29.1567 16.2089 27.5251 14.1239 25.4401C12.0388 23.3551 10.4072 20.7954 9.4055 18.0377C9.0836 17.1515 8.9886 16.2367 9.12324 15.3186C9.24937 14.4587 9.58248 13.6238 10.0866 12.9043C10.5929 12.1816 11.268 11.5806 12.0387 11.1661C12.8607 10.7241 13.7578 10.5 14.7052 10.5C14.9999 10.5 15.2546 10.7059 15.3163 10.994L16.2973 15.5719C16.3417 15.7792 16.278 15.9949 16.1281 16.1448L14.4519 17.821C16.0332 20.9648 18.599 23.5307 21.7429 25.1119L23.4191 23.4357C23.569 23.2858 23.7847 23.2222 23.992 23.2665L28.5699 24.2475C28.858 24.3093 29.0639 24.564 29.0639 24.8586C29.0639 25.8061 28.8397 26.7032 28.3977 27.5252C27.9832 28.2959 27.3822 28.971 26.6595 29.4773C25.9401 29.9814 25.1052 30.3145 24.2452 30.4407C23.9757 30.4802 23.7063 30.5 23.4379 30.5ZM14.2059 11.7773C12.9561 11.9153 11.8469 12.5703 11.1103 13.6216C10.2819 14.8038 10.0888 16.2578 10.5803 17.611C12.5062 22.9126 16.6514 27.0578 21.9529 28.9836C23.3061 29.4752 24.7601 29.282 25.9423 28.4537C26.9936 27.7171 27.6487 26.6078 27.7867 25.3581L24.0626 24.56L22.312 26.3106C22.1257 26.4969 21.8427 26.5464 21.6043 26.4343C17.8861 24.6875 14.8764 21.6778 13.1296 17.9596C13.0176 17.7212 13.0671 17.4382 13.2533 17.2519L15.0039 15.5014L14.2059 11.7773Z" fill="white"/>
</g>
<defs>
<clipPath id="clip0_230_7">
<rect width="20" height="20" fill="white" transform="translate(9.06348 10.5)"/>
</clipPath>
</defs>
</svg>
