<svg width="40" height="40" viewBox="0 0 40 40" fill="none" xmlns="http://www.w3.org/2000/svg">
<circle cx="19.5317" cy="20.0317" r="19.5317" fill="#037E8C"/>
<g clip-path="url(#clip0_1_568)">
<path d="M29.0152 18.6949C29.0146 18.6944 29.0142 18.6938 29.0137 18.6934L20.8693 10.5492C20.5221 10.2019 20.0606 10.0107 19.5696 10.0107C19.0787 10.0107 18.6171 10.2019 18.2698 10.5492L10.1296 18.6892C10.1269 18.692 10.124 18.6949 10.1214 18.6976C9.40853 19.4146 9.40975 20.5779 10.1249 21.2931C10.4517 21.62 10.8831 21.8092 11.3444 21.8291C11.3633 21.831 11.3822 21.8319 11.4013 21.8319H11.7257V27.8253C11.7257 29.0115 12.6909 29.9765 13.877 29.9765H17.0634C17.3865 29.9765 17.6483 29.7145 17.6483 29.3915V24.6926C17.6483 24.1514 18.0887 23.7111 18.6299 23.7111H20.5093C21.0505 23.7111 21.4908 24.1514 21.4908 24.6926V29.3915C21.4908 29.7145 21.7526 29.9765 22.0757 29.9765H25.2621C26.4484 29.9765 27.4134 29.0115 27.4134 27.8253V21.8319H27.7144C28.2052 21.8319 28.6667 21.6407 29.0142 21.2933C29.7301 20.577 29.7304 19.4116 29.0152 18.6949ZM28.1869 20.4661C28.0606 20.5924 27.8927 20.662 27.7144 20.662H26.8284C26.5054 20.662 26.2435 20.9239 26.2435 21.247V27.8253C26.2435 28.3664 25.8033 28.8066 25.2621 28.8066H22.6606V24.6926C22.6606 23.5064 21.6956 22.5413 20.5093 22.5413H18.6299C17.4436 22.5413 16.4785 23.5064 16.4785 24.6926V28.8066H13.877C13.336 28.8066 12.8956 28.3664 12.8956 27.8253V21.247C12.8956 20.9239 12.6337 20.662 12.3107 20.662H11.44C11.4308 20.6614 11.4218 20.661 11.4125 20.6608C11.2383 20.6578 11.0748 20.5886 10.9524 20.466C10.6919 20.2055 10.6919 19.7816 10.9524 19.5209C10.9525 19.5209 10.9525 19.5208 10.9527 19.5206L10.9531 19.5202L19.0973 11.3763C19.2234 11.2501 19.3911 11.1806 19.5696 11.1806C19.748 11.1806 19.9157 11.2501 20.042 11.3763L28.1843 19.5185C28.1855 19.5197 28.1869 19.5209 28.1881 19.5222C28.4472 19.7831 28.4468 20.2061 28.1869 20.4661Z" fill="white"/>
</g>
<defs>
<clipPath id="clip0_1_568">
<rect width="19.9657" height="19.9657" fill="white" transform="translate(9.54883 10.0488)"/>
</clipPath>
</defs>
</svg>
