<svg width="33" height="34" viewBox="0 0 33 34" fill="none" xmlns="http://www.w3.org/2000/svg">
<g clip-path="url(#clip0_1_597)">
<path d="M16.5232 21.6795C19.2202 21.6795 21.4065 19.5609 21.4065 16.9474C21.4065 14.334 19.2202 12.2153 16.5232 12.2153C13.8262 12.2153 11.6399 14.334 11.6399 16.9474C11.6399 19.5609 13.8262 21.6795 16.5232 21.6795Z" fill="#121214"/>
<path d="M24.0817 17.2113C24.0817 21.2561 20.6976 24.5345 16.5232 24.5345C12.3489 24.5345 8.96481 21.2561 8.96481 17.2113C8.96481 16.4865 9.07419 15.7864 9.27675 15.125H7.04321V25.397C7.04321 25.9291 7.47804 26.3636 8.00975 26.3636H24.9432C25.4753 26.3636 25.9104 25.9291 25.9104 25.397V15.125H23.7697C23.972 15.7864 24.0817 16.4865 24.0817 17.2113Z" fill="#121214"/>
<path d="M22.0558 12.3532H24.8041C25.4064 12.3532 25.8986 11.861 25.8986 11.2587V8.63828C25.8986 8.03567 25.4064 7.54346 24.8041 7.54346H22.0558C21.4532 7.54346 20.9609 8.03567 20.9609 8.63828V11.2587C20.9606 11.8606 21.4532 12.3532 22.0558 12.3532Z" fill="#121214"/>
<path d="M16.5 0.5C7.38727 0.5 0 7.88727 0 17C0 26.1127 7.38727 33.5 16.5 33.5C25.6127 33.5 33 26.1127 33 17C33 7.88727 25.6127 0.5 16.5 0.5ZM25.5374 29.1589H7.4629C5.74554 29.1589 4.34148 27.8878 4.34148 26.0381V7.96256C4.34148 6.11219 5.74554 4.84148 7.4629 4.84148H25.5374C27.2545 4.84148 28.6589 6.11219 28.6589 7.96256V26.0381C28.6589 27.8878 27.2541 29.1589 25.5374 29.1589Z" fill="#121214"/>
</g>
<defs>
<clipPath id="clip0_1_597">
<rect width="33" height="33" fill="white" transform="translate(0 0.5)"/>
</clipPath>
</defs>
</svg>
