<svg width="40" height="40" viewBox="0 0 40 40" fill="none" xmlns="http://www.w3.org/2000/svg">
<circle cx="19.5317" cy="19.8183" r="19.5317" fill="#037E8C"/>
<path d="M28.1543 11.1206H10.8457C9.82925 11.1206 9 11.9884 9 13.0542V25.9448C9 27.007 9.82556 27.8784 10.8457 27.8784H28.1543C29.1682 27.8784 30 27.0135 30 25.9448V13.0542C30 11.992 29.1744 11.1206 28.1543 11.1206ZM27.8994 12.4097L19.5391 21.1681L11.1065 12.4097H27.8994ZM10.2305 25.6779V13.315L16.1564 19.4698L10.2305 25.6779ZM11.1005 26.5894L17.0302 20.3774L19.1079 22.5353C19.3484 22.7852 19.7365 22.7843 19.9761 22.5334L22.002 20.411L27.8995 26.5894H11.1005ZM28.7695 25.6779L22.872 19.4995L28.7695 13.3211V25.6779Z" fill="white"/>
</svg>
