<svg width="33" height="34" viewBox="0 0 33 34" fill="none" xmlns="http://www.w3.org/2000/svg">
<circle cx="16.3204" cy="16.8204" r="16.3204" fill="#121214"/>
<path d="M22.2498 18.6746C21.9566 18.524 20.4962 17.8086 20.2246 17.7117C19.9529 17.6095 19.7539 17.5611 19.5576 17.8624C19.3586 18.1609 18.7938 18.8252 18.6163 19.0269C18.4441 19.2259 18.2693 19.2501 17.9762 19.1022C16.2333 18.2308 15.0903 17.5477 13.9419 15.5763C13.638 15.0518 14.2458 15.0895 14.8133 13.9572C14.9101 13.7582 14.8617 13.5887 14.7864 13.4381C14.7111 13.2875 14.1194 11.8298 13.872 11.2354C13.6326 10.6571 13.3851 10.7378 13.205 10.7271C13.0328 10.7163 12.8365 10.7163 12.6375 10.7163C12.4384 10.7163 12.1184 10.7916 11.8467 11.0848C11.5751 11.3833 10.8086 12.1014 10.8086 13.5591C10.8086 15.0168 11.871 16.4288 12.0162 16.6279C12.1668 16.8269 14.1059 19.8176 17.0832 21.1059C18.9659 21.9181 19.7028 21.9881 20.6441 21.8482C21.217 21.7622 22.3977 21.1328 22.6425 20.4362C22.8872 19.7423 22.8872 19.1479 22.8146 19.0242C22.742 18.8924 22.5429 18.8171 22.2498 18.6746Z" fill="white"/>
<path d="M27.9435 11.6413C27.3357 10.197 26.4643 8.90065 25.3535 7.78719C24.2428 6.67642 22.9464 5.80232 21.4994 5.19718C20.0202 4.5759 18.4495 4.26123 16.8304 4.26123H16.7766C15.1468 4.2693 13.5681 4.59204 12.0834 5.22677C10.6499 5.83998 9.36434 6.71138 8.26433 7.82215C7.16431 8.93292 6.30098 10.2239 5.70391 11.6628C5.08532 13.1528 4.77333 14.7369 4.7814 16.3667C4.78947 18.2333 5.23593 20.0863 6.07237 21.7431V25.8312C6.07237 26.5143 6.62641 27.0683 7.30955 27.0683H11.4003C13.057 27.9048 14.9101 28.3512 16.7766 28.3593H16.8331C18.4441 28.3593 20.0068 28.0473 21.4779 27.4368C22.9168 26.837 24.2105 25.9764 25.3186 24.8764C26.4293 23.7764 27.3034 22.4908 27.9139 21.0573C28.5487 19.5727 28.8714 17.9939 28.8795 16.3641C28.8875 14.7261 28.5702 13.1366 27.9435 11.6413ZM23.8797 23.4214C21.9943 25.2879 19.4931 26.3153 16.8304 26.3153H16.7847C15.1629 26.3072 13.5519 25.9038 12.1292 25.1453L11.9032 25.0243H8.1164V21.2375L7.99538 21.0115C7.23693 19.5888 6.8335 17.9778 6.82544 16.356C6.81468 13.6745 7.83938 11.1572 9.71936 9.26104C11.5966 7.36493 14.106 6.31602 16.7874 6.30526H16.8331C18.1779 6.30526 19.4823 6.56615 20.7114 7.08253C21.9109 7.58547 22.9867 8.30895 23.9119 9.23415C24.8344 10.1567 25.5606 11.2351 26.0636 12.4347C26.5853 13.6772 26.8462 14.9951 26.8408 16.356C26.8247 19.0347 25.7731 21.5441 23.8797 23.4214Z" fill="white"/>
</svg>
