<svg width="94" height="94" viewBox="0 0 94 94" fill="none" xmlns="http://www.w3.org/2000/svg">
<path d="M11.7501 47C7.44175 47 3.91675 43.475 3.91675 39.1667V19.5833C3.91675 15.275 7.44175 11.75 11.7501 11.75H43.0834C47.3917 11.75 50.9167 15.275 50.9167 19.5833V39.1667C50.9167 43.475 47.3917 47 43.0834 47H35.2501V58.75L23.5001 47H11.7501ZM82.2501 70.5C86.5584 70.5 90.0834 66.975 90.0834 62.6667V43.0833C90.0834 38.775 86.5584 35.25 82.2501 35.25H58.7501V39.1667C58.7501 47.7833 51.7001 54.8333 43.0834 54.8333V62.6667C43.0834 66.975 46.6084 70.5 50.9167 70.5H58.7501V82.25L70.5001 70.5H82.2501Z" fill="#121214"/>
</svg>
