<?xml version="1.0" encoding="UTF-8"?>
<svg xmlns="http://www.w3.org/2000/svg" xmlns:xlink="http://www.w3.org/1999/xlink" width="30px" height="30px" viewBox="0 0 30 30" version="1.1">
<g id="surface1">
<path style=" stroke:none;fill-rule:evenodd;fill:rgb(0%,0%,0%);fill-opacity:1;" d="M 4.242188 2.753906 C 4.628906 2.460938 5.152344 2.417969 5.585938 2.644531 L 26.835938 13.894531 C 27.242188 14.113281 27.5 14.535156 27.5 15 C 27.5 15.464844 27.242188 15.886719 26.835938 16.105469 L 5.585938 27.355469 C 5.152344 27.582031 4.628906 27.539062 4.242188 27.242188 C 3.855469 26.949219 3.675781 26.453125 3.78125 25.980469 L 6.21875 15 L 3.78125 4.019531 C 3.675781 3.546875 3.855469 3.050781 4.242188 2.753906 Z M 8.503906 16.25 L 6.808594 23.878906 L 21.21875 16.25 Z M 21.21875 13.75 L 8.503906 13.75 L 6.808594 6.121094 Z M 21.21875 13.75 "/>
</g>
</svg>
