<?xml version="1.0" encoding="UTF-8"?>
<svg xmlns="http://www.w3.org/2000/svg" xmlns:xlink="http://www.w3.org/1999/xlink" width="30px" height="30px" viewBox="0 0 30 30" version="1.1">
<g id="surface1">
<path style=" stroke:none;fill-rule:evenodd;fill:rgb(0%,0%,0%);fill-opacity:1;" d="M 15 0 L 15 1.765625 C 22.296875 1.765625 28.234375 7.703125 28.234375 15 C 28.234375 22.296875 22.296875 28.234375 15 28.234375 C 7.703125 28.234375 1.765625 22.296875 1.765625 15 C 1.765625 10.828125 3.742188 6.9375 7.058594 4.441406 L 7.058594 10.589844 L 8.824219 10.589844 L 8.824219 1.765625 L 0 1.765625 L 0 3.53125 L 5.359375 3.53125 C 1.984375 6.367188 0 10.542969 0 15 C 0 23.269531 6.730469 30 15 30 C 23.269531 30 30 23.269531 30 15 C 30 6.730469 23.269531 0 15 0 "/>
</g>
</svg>
