<svg width="24" height="24" viewBox="0 0 24 24" fill="none" xmlns="http://www.w3.org/2000/svg">
<circle cx="12" cy="12" r="12" fill="white"/>
<g clip-path="url(#clip0_1_12)">
<path fill-rule="evenodd" clip-rule="evenodd" d="M6.1936 12.3871C6.1936 12.2844 6.23439 12.186 6.30698 12.1134C6.37958 12.0408 6.47804 12 6.5807 12H15.7108L13.2744 9.56439C13.2017 9.4917 13.1609 9.39312 13.1609 9.29033C13.1609 9.18753 13.2017 9.08895 13.2744 9.01626C13.3471 8.94358 13.4456 8.90274 13.5484 8.90274C13.6512 8.90274 13.7498 8.94358 13.8225 9.01626L16.9193 12.113C16.9553 12.149 16.9839 12.1917 17.0034 12.2387C17.023 12.2858 17.033 12.3362 17.033 12.3871C17.033 12.438 17.023 12.4884 17.0034 12.5355C16.9839 12.5825 16.9553 12.6252 16.9193 12.6612L13.8225 15.7579C13.7498 15.8306 13.6512 15.8715 13.5484 15.8715C13.4456 15.8715 13.3471 15.8306 13.2744 15.7579C13.2017 15.6853 13.1609 15.5867 13.1609 15.4839C13.1609 15.3811 13.2017 15.2825 13.2744 15.2098L15.7108 12.7742H6.5807C6.47804 12.7742 6.37958 12.7334 6.30698 12.6608C6.23439 12.5882 6.1936 12.4898 6.1936 12.3871Z" fill="#037E8C"/>
</g>
<defs>
<clipPath id="clip0_1_12">
<rect width="12.3871" height="12.3871" fill="white" transform="translate(5.41943 6.19355)"/>
</clipPath>
</defs>
</svg>
