<svg height="auto" viewBox="0 0 2000 1000" xmlns="http://www.w3.org/2000/svg"><path d="M0 13.295c21 4.836 63 9.529 105 24.177s63 39.84 105 49.063c42 9.222 63-8.204 105-2.951s63 6.785 105 29.217c42 22.433 63 44.319 105 82.947s63 94.067 105 110.193c42 16.127 63-28.628 105-29.56 42-.933 63 27.523 105 24.897 42-2.627 63-36.59 105-38.028 42-1.439 63 16.746 105 30.834 42 14.088 63 4.56 105 39.606s63 120.02 105 135.622c42 15.602 63-96.515 105-57.614 42 38.902 63 203.496 105 252.123 42 48.628 63-6.383 105-8.984 42-2.6 63 11.434 105-4.02 42-15.452 63-72.877 105-73.245 42-.368 63 61.773 105 71.407 42 9.635 84-18.588 105-23.235l5 374.256H0Z" fill="#444cf71a"/><path d="M0 13.295c21 4.836 63 9.529 105 24.177s63 39.84 105 49.063c42 9.222 63-8.204 105-2.951s63 6.785 105 29.217c42 22.433 63 44.319 105 82.947s63 94.067 105 110.193c42 16.127 63-28.628 105-29.56 42-.933 63 27.523 105 24.897 42-2.627 63-36.59 105-38.028 42-1.439 63 16.746 105 30.834 42 14.088 63 4.56 105 39.606s63 120.02 105 135.622c42 15.602 63-96.515 105-57.614 42 38.902 63 203.496 105 252.123 42 48.628 63-6.383 105-8.984 42-2.6 63 11.434 105-4.02 42-15.452 63-72.877 105-73.245 42-.368 63 61.773 105 71.407 42 9.635 84-18.588 105-23.235" fill="none" stroke="#444cf7" stroke-width="4"/><g fill="#444cf7"><circle cy="13.295" r="8"/><circle cx="105" cy="37.472" r="8"/><circle cx="210" cy="86.535" r="8"/><circle cx="315" cy="83.584" r="8"/><circle cx="420" cy="112.801" r="8"/><circle cx="525" cy="195.748" r="8"/><circle cx="630" cy="305.941" r="8"/><circle cx="735" cy="276.38" r="8"/><circle cx="840" cy="301.278" r="8"/><circle cx="945" cy="263.25" r="8"/><circle cx="1050" cy="294.084" r="8"/><circle cx="1155" cy="333.69" r="8"/><circle cx="1260" cy="469.312" r="8"/><circle cx="1365" cy="411.698" r="8"/><circle cx="1470" cy="663.821" r="8"/><circle cx="1575" cy="654.837" r="8"/><circle cx="1680" cy="650.818" r="8"/><circle cx="1785" cy="577.572" r="8"/><circle cx="1890" cy="648.979" r="8"/><circle cx="1995" cy="625.744" r="8"/></g></svg>