<svg height="auto" viewBox="0 0 2000 1000" xmlns="http://www.w3.org/2000/svg"><path d="M0 114.494c21 75.548 63 326.05 105 377.743 42 51.692 63-166.109 105-119.279 42 46.83 63 356.948 105 353.43 42-3.52 63-368.62 105-371.023 42-2.402 63 291.086 105 359.008 42 67.923 63 65.95 105-19.396 42-85.345 63-387.088 105-407.33 42-20.242 63 284.795 105 306.12 42 21.324 63-144.802 105-199.497 42-54.696 63-48.839 105-73.982 42-25.142 63-102.895 105-51.732s63 295.538 105 307.547c42 12.01 63-205.645 105-247.498 42-41.854 63 39.772 105 38.232 42-1.54 63-90.72 105-45.933s63 217.558 105 269.868 63-1.75 105-8.316c42-6.567 63-39.4 105-24.517 42 14.882 84 79.141 105 98.927l5 343.134H0Z" fill="#444cf71a"/><path d="M0 114.494c21 75.548 63 326.05 105 377.743 42 51.692 63-166.109 105-119.279 42 46.83 63 356.948 105 353.43 42-3.52 63-368.62 105-371.023 42-2.402 63 291.086 105 359.008 42 67.923 63 65.95 105-19.396 42-85.345 63-387.088 105-407.33 42-20.242 63 284.795 105 306.12 42 21.324 63-144.802 105-199.497 42-54.696 63-48.839 105-73.982 42-25.142 63-102.895 105-51.732s63 295.538 105 307.547c42 12.01 63-205.645 105-247.498 42-41.854 63 39.772 105 38.232 42-1.54 63-90.72 105-45.933s63 217.558 105 269.868 63-1.75 105-8.316c42-6.567 63-39.4 105-24.517 42 14.882 84 79.141 105 98.927" fill="none" stroke="#444cf7" stroke-width="4"/><g fill="#444cf7"><circle cy="114.494" r="8"/><circle cx="105" cy="492.237" r="8"/><circle cx="210" cy="372.958" r="8"/><circle cx="315" cy="726.387" r="8"/><circle cx="420" cy="355.365" r="8"/><circle cx="525" cy="714.373" r="8"/><circle cx="630" cy="694.977" r="8"/><circle cx="735" cy="287.647" r="8"/><circle cx="840" cy="593.767" r="8"/><circle cx="945" cy="394.27" r="8"/><circle cx="1050" cy="320.288" r="8"/><circle cx="1155" cy="268.556" r="8"/><circle cx="1260" cy="576.103" r="8"/><circle cx="1365" cy="328.605" r="8"/><circle cx="1470" cy="366.837" r="8"/><circle cx="1575" cy="320.904" r="8"/><circle cx="1680" cy="590.772" r="8"/><circle cx="1785" cy="582.456" r="8"/><circle cx="1890" cy="557.939" r="8"/><circle cx="1995" cy="656.866" r="8"/></g></svg>