<svg height="auto" viewBox="0 0 2000 1000" xmlns="http://www.w3.org/2000/svg"><path d="M0 995.208c21-8.67 63-27.567 105-43.347 42-15.78 63-28.506 105-35.552 42-7.045 63 12.304 105 .323 42-11.98 63-47.256 105-60.226 42-12.969 63 5.754 105-4.62 42-10.373 63-39.443 105-47.249 42-7.806 63 19.874 105 8.221 42-11.653 63-36.006 105-66.486 42-30.48 63-39.91 105-85.915 42-46.005 63-132.96 105-144.109 42-11.148 63 77.947 105 88.366 42 10.418 63 7.331 105-36.275s63-192.868 105-181.757c42 11.111 63 255.429 105 237.311 42-18.117 63-244.598 105-327.897 42-83.3 63-67.452 105-88.601s63-57.693 105-17.144 63 254.362 105 219.888c42-34.474 84-313.807 105-392.258l5 982.119H0Z" fill="#444cf71a"/><path d="M0 995.208c21-8.67 63-27.567 105-43.347 42-15.78 63-28.506 105-35.552 42-7.045 63 12.304 105 .323 42-11.98 63-47.256 105-60.226 42-12.969 63 5.754 105-4.62 42-10.373 63-39.443 105-47.249 42-7.806 63 19.874 105 8.221 42-11.653 63-36.006 105-66.486 42-30.48 63-39.91 105-85.915 42-46.005 63-132.96 105-144.109 42-11.148 63 77.947 105 88.366 42 10.418 63 7.331 105-36.275s63-192.868 105-181.757c42 11.111 63 255.429 105 237.311 42-18.117 63-244.598 105-327.897 42-83.3 63-67.452 105-88.601s63-57.693 105-17.144 63 254.362 105 219.888c42-34.474 84-313.807 105-392.258" fill="none" stroke="#444cf7" stroke-width="4"/><g fill="#444cf7"><circle cy="995.208" r="8"/><circle cx="105" cy="951.861" r="8"/><circle cx="210" cy="916.309" r="8"/><circle cx="315" cy="916.632" r="8"/><circle cx="420" cy="856.406" r="8"/><circle cx="525" cy="851.786" r="8"/><circle cx="630" cy="804.537" r="8"/><circle cx="735" cy="812.758" r="8"/><circle cx="840" cy="746.272" r="8"/><circle cx="945" cy="660.357" r="8"/><circle cx="1050" cy="516.248" r="8"/><circle cx="1155" cy="604.614" r="8"/><circle cx="1260" cy="568.339" r="8"/><circle cx="1365" cy="386.582" r="8"/><circle cx="1470" cy="623.893" r="8"/><circle cx="1575" cy="295.996" r="8"/><circle cx="1680" cy="207.395" r="8"/><circle cx="1785" cy="190.251" r="8"/><circle cx="1890" cy="410.139" r="8"/><circle cx="1995" cy="17.881" r="8"/></g></svg>