<svg width="15" height="14" viewBox="0 0 15 14" fill="none" xmlns="http://www.w3.org/2000/svg">
<path d="M14.0787 4.86204L9.86356 4.24944L7.97928 0.429425C7.92781 0.324835 7.84315 0.240167 7.73856 0.188702C7.47625 0.0592102 7.1575 0.16712 7.02635 0.429425L5.14207 4.24944L0.926937 4.86204C0.810726 4.87864 0.704476 4.93343 0.623128 5.01644C0.524784 5.11752 0.470591 5.25351 0.472459 5.39452C0.474327 5.53554 0.532102 5.67005 0.633089 5.76849L3.6828 8.74183L2.96229 12.9404C2.94539 13.038 2.9562 13.1385 2.99349 13.2303C3.03077 13.3222 3.09304 13.4017 3.17324 13.46C3.25344 13.5182 3.34835 13.5528 3.44722 13.5599C3.54609 13.5669 3.64495 13.5461 3.7326 13.4998L7.50281 11.5176L11.273 13.4998C11.376 13.5546 11.4955 13.5729 11.61 13.553C11.8989 13.5032 12.0931 13.2292 12.0433 12.9404L11.3228 8.74183L14.3725 5.76849C14.4555 5.68714 14.5103 5.58089 14.5269 5.46468C14.5718 5.17415 14.3692 4.90521 14.0787 4.86204Z" fill="#037E8C"/>
</svg>
