<svg width="19" height="20" viewBox="0 0 19 20" fill="none" xmlns="http://www.w3.org/2000/svg">
<path d="M3.51475 3.12683C3.15616 3.12647 2.80102 3.19683 2.46966 3.33389C2.13829 3.47095 1.83722 3.67201 1.58366 3.92558C1.3301 4.17914 1.12903 4.48021 0.991973 4.81158C0.854914 5.14294 0.784552 5.49808 0.784913 5.85667C0.784913 7.90358 3.51475 10.9258 3.51475 10.9258C3.51475 10.9258 6.24458 7.90358 6.24458 5.85667C6.24494 5.49808 6.17458 5.14294 6.03752 4.81158C5.90046 4.48021 5.6994 4.17914 5.44584 3.92558C5.19228 3.67201 4.8912 3.47095 4.55984 3.33389C4.22847 3.19683 3.87333 3.12647 3.51475 3.12683ZM3.51475 6.83108C3.32202 6.83108 3.13363 6.77393 2.97339 6.66686C2.81315 6.55979 2.68825 6.40761 2.6145 6.22956C2.54075 6.05151 2.52145 5.85558 2.55905 5.66657C2.59665 5.47755 2.68946 5.30392 2.82573 5.16765C2.962 5.03137 3.13563 4.93857 3.32465 4.90097C3.51367 4.86337 3.70959 4.88267 3.88764 4.95642C4.06569 5.03017 4.21787 5.15507 4.32494 5.31531C4.43201 5.47555 4.48916 5.66394 4.48916 5.85667C4.48892 6.11502 4.38618 6.36273 4.20349 6.54541C4.02081 6.7281 3.7731 6.83084 3.51475 6.83108Z" fill="#121214"/>
<path d="M17.272 9.35467V5.413C17.2656 4.99909 17.2027 4.58799 17.085 4.19109C16.7842 3.1418 16.1186 2.23444 15.208 1.63254C14.2974 1.03064 13.2017 0.773779 12.1185 0.908243C11.0353 1.04271 10.0357 1.55966 9.29989 2.36593C8.56409 3.1722 8.14047 4.21477 8.10536 5.30575V5.53309L8.0962 6.33059V15.4533H8.09253V15.4908C8.09253 15.9771 7.89937 16.4434 7.55556 16.7872C7.21174 17.131 6.74543 17.3242 6.2592 17.3242C5.77297 17.3242 5.30665 17.131 4.96283 16.7872C4.61902 16.4434 4.42586 15.9771 4.42586 15.4908C4.42586 15.4798 4.42861 15.4688 4.42953 15.4569H4.42586V13.6758H2.59253V15.5092H2.59436C2.59497 16.4811 2.98167 17.4131 3.66939 18.0999C4.35711 18.7868 5.28951 19.1723 6.26149 19.1717C7.23346 19.1711 8.16538 18.7844 8.85224 18.0967C9.5391 17.409 9.92464 16.4766 9.92403 15.5046H9.92586V14.6044H9.93045V7.24725L9.93961 5.53309V5.30667C9.96574 4.58503 10.2746 3.90261 10.7994 3.40667C11.3243 2.91074 12.0232 2.64108 12.7451 2.65588C13.4671 2.67068 14.1543 2.96876 14.6584 3.48578C15.1625 4.00281 15.4431 4.69732 15.4396 5.41942V9.33817C15.0886 9.53679 14.8129 9.84568 14.6553 10.2169C14.4977 10.5882 14.467 11.0011 14.5679 11.3916C14.6688 11.7821 14.8958 12.1284 15.2136 12.3767C15.5313 12.6251 15.9222 12.7617 16.3255 12.7653C16.7288 12.769 17.1221 12.6394 17.4443 12.3968C17.7665 12.1542 17.9996 11.8121 18.1076 11.4234C18.2155 11.0348 18.1922 10.6215 18.0413 10.2474C17.8904 9.87338 17.6203 9.55958 17.2729 9.35467H17.272Z" fill="#121214"/>
</svg>
