<svg width="304" height="158" viewBox="0 0 304 158" fill="none" xmlns="http://www.w3.org/2000/svg">
<path fill-rule="evenodd" clip-rule="evenodd" d="M215.254 378.819C193.452 364.52 174.08 348.682 155.67 330.208C137.86 312.335 126.62 290.305 109.026 272.219C74.1871 236.405 -5.37655 221.188 1.39613 171.617C7.82292 124.578 85.903 134.105 130.204 117.209C156.162 107.309 185.287 108.176 208.362 92.6828C245.246 67.9173 259.538 -9.57796 302.51 1.51598C346.112 12.7724 307.966 101.105 344.271 127.77C388.846 160.509 487.435 98.4742 505.689 150.745C523.528 201.829 417.813 214.677 391.052 261.73C374.902 290.125 401.544 328.372 387.807 358.012C372.615 390.789 347.653 428.315 311.844 432.633C274.616 437.122 246.611 399.383 215.254 378.819Z" fill="#373737"/>
</svg>
